<svg xmlns="http://www.w3.org/2000/svg" viewBox="0 0 512 512" width="512" height="512">
  <defs>
    <clipPath id="tile"><rect x="16" y="16" width="480" height="480" rx="108"/></clipPath>
    <pattern id="argyle" width="120" height="160" patternUnits="userSpaceOnUse">
      <rect width="120" height="160" fill="#07140F"/>
      <polygon points="60,0 120,80 60,160 0,80" fill="#1C4D3C"/>
      <polygon points="0,0 60,80 0,160" fill="#123026"/>
      <polygon points="120,0 60,80 120,160" fill="#123026"/>
      <g stroke="#56AB7B" stroke-width="2" opacity="0.30" stroke-dasharray="6 7">
        <path d="M60 -80 L200 80 M60 -80 L-80 80 M60 80 L200 240 M60 80 L-80 240 M60 240 L200 400 M60 240 L-80 400"/>
      </g>
    </pattern>
  </defs>
  <g clip-path="url(#tile)"><rect x="16" y="16" width="480" height="480" fill="url(#argyle)"/></g>
  <rect x="16" y="16" width="480" height="480" rx="108" fill="none" stroke="#2BD3D3" stroke-width="6"/>
  <!-- Minimalist raccoon: shield head with pointed corner ears (one silhouette),
       twin eye-sockets split by a narrow forehead blaze, bold eyes + heart nose. -->
  <g>
    <!-- head + pointed corner ears as one continuous silhouette -->
    <path d="M140 240
             C132 184 138 162 150 156
             L152 84 L210 150
             C230 142 282 142 302 150
             L360 84 L362 156
             C374 162 380 184 372 240
             C372 318 320 374 256 374
             C192 374 140 318 140 240 Z" fill="#56AB7B"/>
    <!-- inner ears -->
    <path d="M168 148 L172 102 L202 146 Z" fill="#123026"/>
    <path d="M344 148 L340 102 L310 146 Z" fill="#123026"/>
    <!-- whiskers -->
    <g stroke="#C7E9D8" stroke-width="3" fill="none" stroke-linecap="round" opacity="0.7">
      <path d="M230 316 Q192 306 150 310"/>
      <path d="M232 324 Q194 326 148 332"/>
      <path d="M282 316 Q320 306 362 310"/>
      <path d="M280 324 Q318 326 364 332"/>
    </g>
    <!-- bandit mask: twin sockets + bridge to the nose, narrow pale blaze between -->
    <ellipse cx="200" cy="252" rx="46" ry="42" fill="#123026"/>
    <ellipse cx="312" cy="252" rx="46" ry="42" fill="#123026"/>
    <path d="M226 268 Q256 262 286 268 Q278 302 256 308 Q234 302 226 268 Z" fill="#123026"/>
    <!-- eyes: pale socket + dark pupil -->
    <ellipse cx="200" cy="250" rx="17" ry="20" fill="#56AB7B"/>
    <ellipse cx="312" cy="250" rx="17" ry="20" fill="#56AB7B"/>
    <circle cx="200" cy="252" r="9" fill="#0B1712"/>
    <circle cx="312" cy="252" r="9" fill="#0B1712"/>
    <circle cx="203" cy="248" r="3" fill="#DCF1E6"/>
    <circle cx="315" cy="248" r="3" fill="#DCF1E6"/>
    <!-- heart nose at the muzzle -->
    <path d="M234 300 Q256 292 278 300 Q272 328 256 338 Q240 328 234 300 Z" fill="#0B1712"/>
  </g>
</svg>
