<svg xmlns="http://www.w3.org/2000/svg" viewBox="0 0 512 512" width="512" height="512">
  <defs>
    <clipPath id="tile"><rect x="16" y="16" width="480" height="480" rx="108"/></clipPath>
    <pattern id="argyle" width="120" height="160" patternUnits="userSpaceOnUse">
      <rect width="120" height="160" fill="#07140F"/>
      <polygon points="60,0 120,80 60,160 0,80" fill="#1C4D3C"/>
      <polygon points="0,0 60,80 0,160" fill="#123026"/>
      <polygon points="120,0 60,80 120,160" fill="#123026"/>
      <g stroke="#56AB7B" stroke-width="2" opacity="0.30" stroke-dasharray="6 7">
        <path d="M60 -80 L200 80 M60 -80 L-80 80 M60 80 L200 240 M60 80 L-80 240 M60 240 L200 400 M60 240 L-80 400"/>
      </g>
    </pattern>
  </defs>
  <g clip-path="url(#tile)"><rect x="16" y="16" width="480" height="480" fill="url(#argyle)"/></g>
  <rect x="16" y="16" width="480" height="480" rx="108" fill="none" stroke="#2BD3D3" stroke-width="6"/>
  <!-- Raccoon face silhouette: solid pointed ears, muzzle bump, signature horizontal bandit mask. -->
  <g>
    <!-- solid pointed ears -->
    <polygon points="150,152 216,146 172,74" fill="#56AB7B"/>
    <polygon points="362,152 296,146 340,74" fill="#56AB7B"/>
    <!-- head + muzzle -->
    <ellipse cx="256" cy="238" rx="120" ry="106" fill="#56AB7B"/>
    <ellipse cx="256" cy="304" rx="54" ry="48" fill="#56AB7B"/>
    <!-- bandit mask band across the eyes -->
    <rect x="172" y="210" width="168" height="54" rx="27" fill="#123026"/>
    <!-- eyes inside the mask -->
    <circle cx="210" cy="237" r="11" fill="#56AB7B"/>
    <circle cx="302" cy="237" r="11" fill="#56AB7B"/>
    <!-- nose -->
    <ellipse cx="256" cy="300" rx="19" ry="14" fill="#123026"/>
  </g>
</svg>
