<svg xmlns="http://www.w3.org/2000/svg" viewBox="0 0 512 512" width="512" height="512">
  <defs>
    <clipPath id="tile"><rect x="16" y="16" width="480" height="480" rx="108"/></clipPath>
    <pattern id="argyle" width="120" height="160" patternUnits="userSpaceOnUse">
      <rect width="120" height="160" fill="#07140F"/>
      <polygon points="60,0 120,80 60,160 0,80" fill="#1C4D3C"/>
      <polygon points="0,0 60,80 0,160" fill="#123026"/>
      <polygon points="120,0 60,80 120,160" fill="#123026"/>
      <g stroke="#56AB7B" stroke-width="2" opacity="0.30" stroke-dasharray="6 7">
        <path d="M60 -80 L200 80 M60 -80 L-80 80 M60 80 L200 240 M60 80 L-80 240 M60 240 L200 400 M60 240 L-80 400"/>
      </g>
    </pattern>
  </defs>
  <g clip-path="url(#tile)"><rect x="16" y="16" width="480" height="480" fill="url(#argyle)"/></g>
  <rect x="16" y="16" width="480" height="480" rx="108" fill="none" stroke="#2BD3D3" stroke-width="6"/>
  <!-- Minimalist raccoon head: rounded ears integrated into the head, a bandit
       mask with almond eyes split by a downward forehead blaze, bold heart nose. -->
  <g>
    <!-- head + rounded corner ears, one continuous silhouette -->
    <path d="M136 252
             C130 198 138 168 154 158
             C146 118 156 86 180 90
             C198 98 208 132 216 160
             C234 150 278 150 296 160
             C304 132 314 98 332 90
             C356 86 366 118 358 158
             C374 168 382 198 376 252
             C376 324 320 382 256 382
             C192 382 136 324 136 252 Z" fill="#56AB7B"/>
    <!-- inner ears -->
    <path d="M162 156 C164 126 176 106 188 106 C202 110 206 136 202 156 Z" fill="#123026"/>
    <path d="M350 156 C348 126 336 106 324 106 C310 110 306 136 310 156 Z" fill="#123026"/>
    <!-- bandit mask band -->
    <path d="M148 248 Q150 210 202 210 Q256 214 310 210 Q362 210 364 248
             Q362 288 306 290 Q256 298 206 290 Q150 288 148 248 Z" fill="#123026"/>
    <!-- forehead blaze: green wedge splitting the mask -->
    <path d="M242 210 L270 210 L256 262 Z" fill="#56AB7B"/>
    <!-- almond eyes (pale) angled outward, with dark pupils -->
    <ellipse cx="196" cy="250" rx="33" ry="19" fill="#56AB7B" transform="rotate(18 196 250)"/>
    <ellipse cx="316" cy="250" rx="33" ry="19" fill="#56AB7B" transform="rotate(-18 316 250)"/>
    <circle cx="194" cy="250" r="9" fill="#0B1712"/>
    <circle cx="318" cy="250" r="9" fill="#0B1712"/>
    <circle cx="197" cy="246" r="3" fill="#DCF1E6"/>
    <circle cx="321" cy="246" r="3" fill="#DCF1E6"/>
    <!-- heart nose on the muzzle -->
    <path d="M236 302 Q256 294 276 302 Q270 330 256 340 Q242 330 236 302 Z" fill="#0B1712"/>
  </g>
</svg>
